<svg xmlns="http://www.w3.org/2000/svg" viewBox="0 0 256 256" role="img" aria-label="Shredder app icon">
  <defs>
    <linearGradient id="bg" x1="40" y1="24" x2="216" y2="232" gradientUnits="userSpaceOnUse">
      <stop offset="0" stop-color="#26313f"/>
      <stop offset="1" stop-color="#111820"/>
    </linearGradient>
    <linearGradient id="accent" x1="69" y1="48" x2="188" y2="214" gradientUnits="userSpaceOnUse">
      <stop offset="0" stop-color="#2ee6a6"/>
      <stop offset="1" stop-color="#1f9fff"/>
    </linearGradient>
    <linearGradient id="paper" x1="86" y1="52" x2="165" y2="147" gradientUnits="userSpaceOnUse">
      <stop offset="0" stop-color="#ffffff"/>
      <stop offset="1" stop-color="#d8e7f5"/>
    </linearGradient>
    <filter id="shadow" x="-20%" y="-20%" width="140%" height="150%">
      <feDropShadow dx="0" dy="10" stdDeviation="10" flood-color="#000000" flood-opacity=".35"/>
    </filter>
  </defs>

  <rect x="18" y="18" width="220" height="220" rx="52" fill="url(#bg)"/>
  <rect x="28" y="28" width="200" height="200" rx="42" fill="none" stroke="url(#accent)" stroke-width="7"/>

  <g filter="url(#shadow)">
    <path d="M84 55h62l30 30v62H84V55Z" fill="url(#paper)"/>
    <path d="M146 55v31h30" fill="#b7cce0"/>
    <path d="M101 91h50M101 114h48" stroke="#26313f" stroke-width="10" stroke-linecap="round"/>

    <rect x="65" y="139" width="126" height="28" rx="14" fill="#0d1218" stroke="url(#accent)" stroke-width="6"/>
    <path d="M85 168h12l6 45H91l-6-45Zm35 0h14v45h-14v-45Zm37 0h13l-8 45h-12l7-45Z" fill="#38d6bf"/>
    <path d="M103 181h18M135 190h18M93 201h16" stroke="#d9fff5" stroke-width="5" stroke-linecap="round" opacity=".75"/>
  </g>
</svg>
